<svg width="202" height="205" viewBox="0 0 202 205" fill="none" xmlns="http://www.w3.org/2000/svg">
<path d="M129.311 76.3392L100.082 98.1008L107.455 105.497L129.311 76.3392Z" fill="white"/>
<path d="M78.2563 127.229L100.113 98.0709L107.485 105.467L78.2563 127.229Z" fill="white"/>
<path d="M129.245 127.309L107.483 98.0803L100.087 105.453L129.245 127.309Z" fill="white"/>
<path d="M78.3581 76.2563L107.516 98.1128L100.12 105.485L78.3581 76.2563Z" fill="white"/>
<path d="M170 102L103.25 109.794V94.2058L170 102Z" fill="white"/>
<path d="M37 102L103.75 109.794V94.2058L37 102Z" fill="white"/>
<path d="M104 169L96.2058 102.25H111.794L104 169Z" fill="white"/>
<path d="M104 36L96.2058 102.75H111.794L104 36Z" fill="white"/>
<circle cx="103.5" cy="102.5" r="38" stroke="white"/>
<mask id="path-10-outside-1_613_843" maskUnits="userSpaceOnUse" x="98" y="19" width="12" height="14" fill="black">
<rect fill="white" x="98" y="19" width="12" height="14"/>
<path d="M108.744 20.3636V32H106.619L101.557 24.6761H101.472V32H99.0114V20.3636H101.17L106.193 27.6818H106.295V20.3636H108.744Z"/>
</mask>
<path d="M108.744 20.3636V32H106.619L101.557 24.6761H101.472V32H99.0114V20.3636H101.17L106.193 27.6818H106.295V20.3636H108.744Z" fill="#DC2B2B"/>
<path d="M108.744 20.3636H109.244V19.8636H108.744V20.3636ZM108.744 32V32.5H109.244V32H108.744ZM106.619 32L106.208 32.2843L106.357 32.5H106.619V32ZM101.557 24.6761L101.968 24.3918L101.819 24.1761H101.557V24.6761ZM101.472 24.6761V24.1761H100.972V24.6761H101.472ZM101.472 32V32.5H101.972V32H101.472ZM99.0114 32H98.5114V32.5H99.0114V32ZM99.0114 20.3636V19.8636H98.5114V20.3636H99.0114ZM101.17 20.3636L101.583 20.0807L101.434 19.8636H101.17V20.3636ZM106.193 27.6818L105.781 27.9648L105.93 28.1818H106.193V27.6818ZM106.295 27.6818V28.1818H106.795V27.6818H106.295ZM106.295 20.3636V19.8636H105.795V20.3636H106.295ZM108.244 20.3636V32H109.244V20.3636H108.244ZM108.744 31.5H106.619V32.5H108.744V31.5ZM107.031 31.7157L101.968 24.3918L101.146 24.9604L106.208 32.2843L107.031 31.7157ZM101.557 24.1761H101.472V25.1761H101.557V24.1761ZM100.972 24.6761V32H101.972V24.6761H100.972ZM101.472 31.5H99.0114V32.5H101.472V31.5ZM99.5114 32V20.3636H98.5114V32H99.5114ZM99.0114 20.8636H101.17V19.8636H99.0114V20.8636ZM100.758 20.6466L105.781 27.9648L106.605 27.3989L101.583 20.0807L100.758 20.6466ZM106.193 28.1818H106.295V27.1818H106.193V28.1818ZM106.795 27.6818V20.3636H105.795V27.6818H106.795ZM106.295 20.8636H108.744V19.8636H106.295V20.8636Z" fill="#DC2B2B" mask="url(#path-10-outside-1_613_843)"/>
<mask id="path-12-outside-2_613_843" maskUnits="userSpaceOnUse" x="173" y="94" width="10" height="14" fill="black">
<rect fill="white" x="173" y="94" width="10" height="14"/>
<path d="M174.011 107V95.3636H181.852V97.392H176.472V100.165H181.449V102.193H176.472V104.972H181.875V107H174.011Z"/>
</mask>
<path d="M174.011 107V95.3636H181.852V97.392H176.472V100.165H181.449V102.193H176.472V104.972H181.875V107H174.011Z" fill="white"/>
<path d="M174.011 107H173.511V107.5H174.011V107ZM174.011 95.3636V94.8636H173.511V95.3636H174.011ZM181.852 95.3636H182.352V94.8636H181.852V95.3636ZM181.852 97.392V97.892H182.352V97.392H181.852ZM176.472 97.392V96.892H175.972V97.392H176.472ZM176.472 100.165H175.972V100.665H176.472V100.165ZM181.449 100.165H181.949V99.6648H181.449V100.165ZM181.449 102.193V102.693H181.949V102.193H181.449ZM176.472 102.193V101.693H175.972V102.193H176.472ZM176.472 104.972H175.972V105.472H176.472V104.972ZM181.875 104.972H182.375V104.472H181.875V104.972ZM181.875 107V107.5H182.375V107H181.875ZM174.511 107V95.3636H173.511V107H174.511ZM174.011 95.8636H181.852V94.8636H174.011V95.8636ZM181.352 95.3636V97.392H182.352V95.3636H181.352ZM181.852 96.892H176.472V97.892H181.852V96.892ZM175.972 97.392V100.165H176.972V97.392H175.972ZM176.472 100.665H181.449V99.6648H176.472V100.665ZM180.949 100.165V102.193H181.949V100.165H180.949ZM181.449 101.693H176.472V102.693H181.449V101.693ZM175.972 102.193V104.972H176.972V102.193H175.972ZM176.472 105.472H181.875V104.472H176.472V105.472ZM181.375 104.972V107H182.375V104.972H181.375ZM181.875 106.5H174.011V107.5H181.875V106.5Z" fill="white" mask="url(#path-12-outside-2_613_843)"/>
<mask id="path-14-outside-3_613_843" maskUnits="userSpaceOnUse" x="99" y="174" width="11" height="14" fill="black">
<rect fill="white" x="99" y="174" width="11" height="14"/>
<path d="M106.324 178.71C106.278 178.252 106.083 177.896 105.739 177.642C105.394 177.388 104.926 177.261 104.335 177.261C103.934 177.261 103.595 177.318 103.318 177.432C103.042 177.542 102.83 177.695 102.682 177.892C102.538 178.089 102.466 178.312 102.466 178.562C102.458 178.771 102.502 178.953 102.597 179.108C102.695 179.263 102.83 179.398 103 179.511C103.17 179.621 103.367 179.718 103.591 179.801C103.814 179.881 104.053 179.949 104.307 180.006L105.352 180.256C105.86 180.369 106.326 180.521 106.75 180.71C107.174 180.9 107.542 181.133 107.852 181.409C108.163 181.686 108.403 182.011 108.574 182.386C108.748 182.761 108.837 183.191 108.841 183.676C108.837 184.388 108.655 185.006 108.295 185.528C107.939 186.047 107.424 186.451 106.75 186.739C106.08 187.023 105.271 187.165 104.324 187.165C103.384 187.165 102.566 187.021 101.869 186.733C101.176 186.445 100.634 186.019 100.244 185.455C99.858 184.886 99.6553 184.184 99.6364 183.347H102.017C102.044 183.737 102.155 184.062 102.352 184.324C102.553 184.581 102.82 184.777 103.153 184.909C103.491 185.038 103.871 185.102 104.295 185.102C104.712 185.102 105.074 185.042 105.381 184.92C105.691 184.799 105.932 184.631 106.102 184.415C106.273 184.199 106.358 183.951 106.358 183.67C106.358 183.409 106.28 183.189 106.125 183.011C105.973 182.833 105.75 182.682 105.455 182.557C105.163 182.432 104.805 182.318 104.381 182.216L103.114 181.898C102.133 181.659 101.358 181.286 100.79 180.778C100.222 180.271 99.9394 179.587 99.9432 178.727C99.9394 178.023 100.127 177.407 100.506 176.881C100.888 176.354 101.413 175.943 102.08 175.648C102.746 175.352 103.504 175.205 104.352 175.205C105.216 175.205 105.97 175.352 106.614 175.648C107.261 175.943 107.765 176.354 108.125 176.881C108.485 177.407 108.67 178.017 108.682 178.71H106.324Z"/>
</mask>
<path d="M106.324 178.71C106.278 178.252 106.083 177.896 105.739 177.642C105.394 177.388 104.926 177.261 104.335 177.261C103.934 177.261 103.595 177.318 103.318 177.432C103.042 177.542 102.83 177.695 102.682 177.892C102.538 178.089 102.466 178.312 102.466 178.562C102.458 178.771 102.502 178.953 102.597 179.108C102.695 179.263 102.83 179.398 103 179.511C103.17 179.621 103.367 179.718 103.591 179.801C103.814 179.881 104.053 179.949 104.307 180.006L105.352 180.256C105.86 180.369 106.326 180.521 106.75 180.71C107.174 180.9 107.542 181.133 107.852 181.409C108.163 181.686 108.403 182.011 108.574 182.386C108.748 182.761 108.837 183.191 108.841 183.676C108.837 184.388 108.655 185.006 108.295 185.528C107.939 186.047 107.424 186.451 106.75 186.739C106.08 187.023 105.271 187.165 104.324 187.165C103.384 187.165 102.566 187.021 101.869 186.733C101.176 186.445 100.634 186.019 100.244 185.455C99.858 184.886 99.6553 184.184 99.6364 183.347H102.017C102.044 183.737 102.155 184.062 102.352 184.324C102.553 184.581 102.82 184.777 103.153 184.909C103.491 185.038 103.871 185.102 104.295 185.102C104.712 185.102 105.074 185.042 105.381 184.92C105.691 184.799 105.932 184.631 106.102 184.415C106.273 184.199 106.358 183.951 106.358 183.67C106.358 183.409 106.28 183.189 106.125 183.011C105.973 182.833 105.75 182.682 105.455 182.557C105.163 182.432 104.805 182.318 104.381 182.216L103.114 181.898C102.133 181.659 101.358 181.286 100.79 180.778C100.222 180.271 99.9394 179.587 99.9432 178.727C99.9394 178.023 100.127 177.407 100.506 176.881C100.888 176.354 101.413 175.943 102.08 175.648C102.746 175.352 103.504 175.205 104.352 175.205C105.216 175.205 105.97 175.352 106.614 175.648C107.261 175.943 107.765 176.354 108.125 176.881C108.485 177.407 108.67 178.017 108.682 178.71H106.324Z" fill="white"/>
<path d="M106.324 178.71L105.826 178.76L105.871 179.21H106.324V178.71ZM103.318 177.432L103.503 177.897L103.508 177.894L103.318 177.432ZM102.682 177.892L102.282 177.592L102.278 177.597L102.682 177.892ZM102.466 178.562L102.966 178.581L102.966 178.572V178.562H102.466ZM102.597 179.108L102.17 179.368L102.174 179.376L102.597 179.108ZM103 179.511L102.723 179.927L102.729 179.932L103 179.511ZM103.591 179.801L103.416 180.27L103.423 180.272L103.591 179.801ZM104.307 180.006L104.423 179.519L104.416 179.518L104.307 180.006ZM105.352 180.256L105.236 180.742L105.243 180.744L105.352 180.256ZM106.75 180.71L106.546 181.167L106.546 181.167L106.75 180.71ZM107.852 181.409L108.185 181.036L108.185 181.036L107.852 181.409ZM108.574 182.386L108.119 182.593L108.12 182.597L108.574 182.386ZM108.841 183.676L109.341 183.679L109.341 183.672L108.841 183.676ZM108.295 185.528L107.884 185.245L107.883 185.246L108.295 185.528ZM106.75 186.739L106.945 187.199L106.946 187.198L106.75 186.739ZM101.869 186.733L101.678 187.195L101.678 187.195L101.869 186.733ZM100.244 185.455L99.8308 185.736L99.833 185.739L100.244 185.455ZM99.6364 183.347V182.847H99.1249L99.1365 183.358L99.6364 183.347ZM102.017 183.347L102.516 183.313L102.484 182.847H102.017V183.347ZM102.352 184.324L101.953 184.625L101.958 184.631L102.352 184.324ZM103.153 184.909L102.969 185.374L102.975 185.376L103.153 184.909ZM105.381 184.92L105.199 184.455L105.197 184.455L105.381 184.92ZM106.102 184.415L106.495 184.725L106.495 184.725L106.102 184.415ZM106.125 183.011L105.744 183.335L105.748 183.34L106.125 183.011ZM105.455 182.557L105.258 183.016L105.26 183.017L105.455 182.557ZM104.381 182.216L104.259 182.701L104.264 182.702L104.381 182.216ZM103.114 181.898L103.235 181.413L103.232 181.412L103.114 181.898ZM100.79 180.778L100.457 181.151L100.457 181.151L100.79 180.778ZM99.9432 178.727L100.443 178.729L100.443 178.725L99.9432 178.727ZM100.506 176.881L100.101 176.587L100.1 176.589L100.506 176.881ZM106.614 175.648L106.405 176.102L106.406 176.103L106.614 175.648ZM108.125 176.881L107.712 177.163L107.712 177.163L108.125 176.881ZM108.682 178.71V179.21H109.19L109.182 178.702L108.682 178.71ZM106.821 178.661C106.763 178.074 106.503 177.584 106.035 177.239L105.442 178.045C105.663 178.208 105.794 178.43 105.826 178.76L106.821 178.661ZM106.035 177.239C105.577 176.902 104.993 176.761 104.335 176.761V177.761C104.859 177.761 105.211 177.874 105.442 178.045L106.035 177.239ZM104.335 176.761C103.89 176.761 103.482 176.824 103.128 176.969L103.508 177.894C103.708 177.812 103.978 177.761 104.335 177.761V176.761ZM103.134 176.967C102.789 177.104 102.495 177.307 102.282 177.592L103.082 178.192C103.164 178.083 103.294 177.979 103.503 177.896L103.134 176.967ZM102.278 177.597C102.07 177.882 101.966 178.209 101.966 178.562H102.966C102.966 178.416 103.006 178.296 103.086 178.187L102.278 177.597ZM101.966 178.544C101.956 178.836 102.017 179.118 102.17 179.368L103.023 178.848C102.987 178.788 102.961 178.706 102.966 178.581L101.966 178.544ZM102.174 179.376C102.314 179.596 102.501 179.779 102.723 179.927L103.277 179.095C103.158 179.016 103.076 178.93 103.019 178.84L102.174 179.376ZM102.729 179.932C102.935 180.064 103.165 180.176 103.416 180.27L103.766 179.333C103.57 179.26 103.406 179.178 103.271 179.091L102.729 179.932ZM103.423 180.272C103.668 180.359 103.926 180.433 104.198 180.494L104.416 179.518C104.18 179.465 103.961 179.402 103.759 179.33L103.423 180.272ZM104.191 180.492L105.236 180.742L105.469 179.769L104.423 179.519L104.191 180.492ZM105.243 180.744C105.722 180.851 106.156 180.992 106.546 181.167L106.954 180.254C106.496 180.049 105.998 179.888 105.462 179.768L105.243 180.744ZM106.546 181.167C106.929 181.338 107.252 181.544 107.52 181.783L108.185 181.036C107.832 180.721 107.42 180.462 106.954 180.254L106.546 181.167ZM107.52 181.783C107.779 182.013 107.977 182.282 108.119 182.593L109.029 182.179C108.829 181.74 108.547 181.358 108.185 181.036L107.52 181.783ZM108.12 182.597C108.26 182.897 108.338 183.254 108.341 183.68L109.341 183.672C109.337 183.128 109.236 182.626 109.027 182.176L108.12 182.597ZM108.341 183.673C108.338 184.298 108.18 184.815 107.884 185.245L108.707 185.812C109.131 185.197 109.337 184.479 109.341 183.679L108.341 183.673ZM107.883 185.246C107.589 185.674 107.155 186.022 106.554 186.279L106.946 187.198C107.693 186.88 108.29 186.421 108.708 185.811L107.883 185.246ZM106.555 186.278C105.962 186.53 105.223 186.665 104.324 186.665V187.665C105.319 187.665 106.197 187.516 106.945 187.199L106.555 186.278ZM104.324 186.665C103.434 186.665 102.684 186.528 102.06 186.271L101.678 187.195C102.449 187.513 103.335 187.665 104.324 187.665V186.665ZM102.061 186.271C101.448 186.017 100.986 185.648 100.656 185.17L99.833 185.739C100.283 186.39 100.904 186.874 101.678 187.195L102.061 186.271ZM100.658 185.173C100.336 184.701 100.153 184.097 100.136 183.335L99.1365 183.358C99.1571 184.27 99.3795 185.072 99.8309 185.736L100.658 185.173ZM99.6364 183.847H102.017V182.847H99.6364V183.847ZM101.518 183.38C101.55 183.848 101.687 184.272 101.953 184.625L102.752 184.023C102.624 183.853 102.537 183.625 102.516 183.313L101.518 183.38ZM101.958 184.631C102.219 184.966 102.561 185.212 102.969 185.374L103.338 184.444C103.079 184.341 102.887 184.197 102.747 184.016L101.958 184.631ZM102.975 185.376C103.378 185.53 103.821 185.602 104.295 185.602V184.602C103.922 184.602 103.603 184.546 103.332 184.442L102.975 185.376ZM104.295 185.602C104.759 185.602 105.186 185.535 105.564 185.385L105.197 184.455C104.962 184.548 104.665 184.602 104.295 184.602V185.602ZM105.562 185.386C105.938 185.24 106.259 185.024 106.495 184.725L105.71 184.105C105.605 184.238 105.444 184.359 105.199 184.455L105.562 185.386ZM106.495 184.725C106.736 184.419 106.858 184.061 106.858 183.67H105.858C105.858 183.841 105.809 183.979 105.71 184.105L106.495 184.725ZM106.858 183.67C106.858 183.302 106.745 182.962 106.502 182.683L105.748 183.34C105.815 183.417 105.858 183.516 105.858 183.67H106.858ZM106.506 182.687C106.289 182.432 105.991 182.241 105.649 182.096L105.26 183.017C105.509 183.123 105.658 183.235 105.744 183.335L106.506 182.687ZM105.652 182.097C105.326 181.958 104.94 181.836 104.498 181.73L104.264 182.702C104.67 182.8 104.999 182.906 105.258 183.016L105.652 182.097ZM104.502 181.731L103.235 181.413L102.992 182.383L104.259 182.701L104.502 181.731ZM103.232 181.412C102.306 181.187 101.613 180.843 101.123 180.406L100.457 181.151C101.103 181.729 101.96 182.132 102.995 182.384L103.232 181.412ZM101.123 180.406C100.676 180.006 100.44 179.467 100.443 178.729L99.4432 178.725C99.4389 179.708 99.7673 180.535 100.457 181.151L101.123 180.406ZM100.443 178.725C100.44 178.116 100.6 177.606 100.912 177.173L100.1 176.589C99.6539 177.209 99.4389 177.929 99.4432 178.73L100.443 178.725ZM100.91 177.175C101.235 176.728 101.686 176.369 102.282 176.105L101.877 175.191C101.14 175.517 100.542 175.981 100.101 176.587L100.91 177.175ZM102.282 176.105C102.875 175.842 103.562 175.705 104.352 175.705V174.705C103.445 174.705 102.617 174.863 101.877 175.191L102.282 176.105ZM104.352 175.705C105.159 175.705 105.839 175.843 106.405 176.102L106.822 175.193C106.1 174.862 105.272 174.705 104.352 174.705V175.705ZM106.406 176.103C106.981 176.365 107.41 176.72 107.712 177.163L108.538 176.599C108.121 175.988 107.542 175.522 106.821 175.193L106.406 176.103ZM107.712 177.163C108.012 177.601 108.172 178.114 108.182 178.718L109.182 178.702C109.169 177.92 108.958 177.213 108.538 176.599L107.712 177.163ZM108.682 178.21H106.324V179.21H108.682V178.21Z" fill="white" mask="url(#path-14-outside-3_613_843)"/>
<mask id="path-16-outside-4_613_843" maskUnits="userSpaceOnUse" x="18" y="94" width="18" height="14" fill="black">
<rect fill="white" x="18" y="94" width="18" height="14"/>
<path d="M22.6307 107L19.3011 95.3636H21.9886L23.9148 103.449H24.0114L26.1364 95.3636H28.4375L30.5568 103.466H30.6591L32.5852 95.3636H35.2727L31.9432 107H29.5455L27.3295 99.392H27.2386L25.0284 107H22.6307Z"/>
</mask>
<path d="M22.6307 107L19.3011 95.3636H21.9886L23.9148 103.449H24.0114L26.1364 95.3636H28.4375L30.5568 103.466H30.6591L32.5852 95.3636H35.2727L31.9432 107H29.5455L27.3295 99.392H27.2386L25.0284 107H22.6307Z" fill="white"/>
<path d="M22.6307 107L22.15 107.138L22.2537 107.5H22.6307V107ZM19.3011 95.3636V94.8636H18.638L18.8204 95.5012L19.3011 95.3636ZM21.9886 95.3636L22.475 95.2478L22.3835 94.8636H21.9886V95.3636ZM23.9148 103.449L23.4284 103.565L23.5199 103.949H23.9148V103.449ZM24.0114 103.449V103.949H24.3969L24.4949 103.576L24.0114 103.449ZM26.1364 95.3636V94.8636H25.7508L25.6528 95.2365L26.1364 95.3636ZM28.4375 95.3636L28.9212 95.2371L28.8235 94.8636H28.4375V95.3636ZM30.5568 103.466L30.0731 103.592L30.1708 103.966H30.5568V103.466ZM30.6591 103.466V103.966H31.0542L31.1455 103.582L30.6591 103.466ZM32.5852 95.3636V94.8636H32.1902L32.0988 95.248L32.5852 95.3636ZM35.2727 95.3636L35.7534 95.5012L35.9359 94.8636H35.2727V95.3636ZM31.9432 107V107.5H32.3202L32.4239 107.138L31.9432 107ZM29.5455 107L29.0654 107.14L29.1703 107.5H29.5455V107ZM27.3295 99.392L27.8096 99.2522L27.7047 98.892H27.3295V99.392ZM27.2386 99.392V98.892H26.8632L26.7585 99.2526L27.2386 99.392ZM25.0284 107V107.5H25.4038L25.5086 107.139L25.0284 107ZM23.1114 106.862L19.7818 95.2261L18.8204 95.5012L22.15 107.138L23.1114 106.862ZM19.3011 95.8636H21.9886V94.8636H19.3011V95.8636ZM21.5022 95.4795L23.4284 103.565L24.4012 103.333L22.475 95.2478L21.5022 95.4795ZM23.9148 103.949H24.0114V102.949H23.9148V103.949ZM24.4949 103.576L26.6199 95.4907L25.6528 95.2365L23.5278 103.322L24.4949 103.576ZM26.1364 95.8636H28.4375V94.8636H26.1364V95.8636ZM27.9538 95.4902L30.0731 103.592L31.0405 103.339L28.9212 95.2371L27.9538 95.4902ZM30.5568 103.966H30.6591V102.966H30.5568V103.966ZM31.1455 103.582L33.0717 95.4793L32.0988 95.248L30.1726 103.35L31.1455 103.582ZM32.5852 95.8636H35.2727V94.8636H32.5852V95.8636ZM34.792 95.2261L31.4625 106.862L32.4239 107.138L35.7534 95.5012L34.792 95.2261ZM31.9432 106.5H29.5455V107.5H31.9432V106.5ZM30.0255 106.86L27.8096 99.2522L26.8495 99.5319L29.0654 107.14L30.0255 106.86ZM27.3295 98.892H27.2386V99.892H27.3295V98.892ZM26.7585 99.2526L24.5483 106.861L25.5086 107.139L27.7188 99.5315L26.7585 99.2526ZM25.0284 106.5H22.6307V107.5H25.0284V106.5Z" fill="white" mask="url(#path-16-outside-4_613_843)"/>
<circle cx="103.5" cy="102.5" r="10.5" fill="white"/>
</svg>
