<svg width="96" height="96" viewBox="0 0 96 96" fill="none" xmlns="http://www.w3.org/2000/svg">
<g clip-path="url(#clip0_590_2285)">
<circle cx="48" cy="48" r="48" fill="#FDFDFD"/>
<path d="M47.5124 8.14983C47.6301 7.63062 48.3699 7.63062 48.4876 8.14982L57.3878 47.3894C57.4587 47.7022 57.2209 48 56.9002 48H39.0998C38.7791 48 38.5413 47.7022 38.6122 47.3894L47.5124 8.14983Z" fill="#DF0004"/>
<path d="M47.5124 86.8502C47.6301 87.3694 48.3699 87.3694 48.4876 86.8502L57.3878 47.6106C57.4587 47.2978 57.2209 47 56.9002 47H39.0998C38.7791 47 38.5413 47.2978 38.6122 47.6106L47.5124 86.8502Z" fill="#D9D9D9"/>
<circle cx="48" cy="48" r="4" fill="#F4F4F5"/>
</g>
<defs>
<clipPath id="clip0_590_2285">
<rect width="96" height="96" fill="white"/>
</clipPath>
</defs>
</svg>
