<svg width="150" height="150" viewBox="0 0 150 150" fill="none" xmlns="http://www.w3.org/2000/svg">
<g clip-path="url(#clip0_716_922)">
<path d="M70.9 5.02H74.4L79.54 13.34V5.02H83.08V19H79.6L74.44 10.66V19H70.9V5.02Z" fill="#FB0200"/>
<path d="M132.9 70.02H142.82V73H136.44V75.62H141.1V78.4H136.44V81.02H142.82V84H132.9V70.02Z" fill="white"/>
<path d="M77.26 149.3C76.38 149.3 75.5067 149.213 74.64 149.04C73.7733 148.88 73.06 148.653 72.5 148.36V145.18C73.22 145.553 73.9667 145.833 74.74 146.02C75.5267 146.207 76.2733 146.3 76.98 146.3C77.6333 146.3 78.1267 146.2 78.46 146C78.7933 145.8 78.96 145.513 78.96 145.14C78.96 144.86 78.8667 144.62 78.68 144.42C78.5067 144.207 78.2467 144.013 77.9 143.84C77.5533 143.667 77.0133 143.427 76.28 143.12C74.9867 142.573 74.0467 141.967 73.46 141.3C72.8733 140.633 72.58 139.813 72.58 138.84C72.58 138.04 72.8 137.327 73.24 136.7C73.6933 136.073 74.32 135.587 75.12 135.24C75.92 134.893 76.84 134.72 77.88 134.72C78.7333 134.72 79.4933 134.787 80.16 134.92C80.8267 135.053 81.4667 135.267 82.08 135.56V138.66C80.9067 138.047 79.7267 137.74 78.54 137.74C77.9 137.74 77.3867 137.847 77 138.06C76.6267 138.26 76.44 138.553 76.44 138.94C76.44 139.327 76.6333 139.64 77.02 139.88C77.4067 140.12 78.12 140.447 79.16 140.86C80.1067 141.247 80.84 141.627 81.36 142C81.8933 142.373 82.28 142.807 82.52 143.3C82.76 143.793 82.88 144.42 82.88 145.18C82.88 146.473 82.4067 147.487 81.46 148.22C80.5267 148.94 79.1267 149.3 77.26 149.3Z" fill="white"/>
<path d="M2.5 70.02H6.14L8.48 78.3L10.74 70.02H13.26L15.38 78.32L17.7 70.02H21.34L17.48 84H14.22L11.92 75.88L9.64 84H6.36L2.5 70.02Z" fill="white"/>
</g>
<defs>
<clipPath id="clip0_716_922">
<rect width="150" height="150" fill="white"/>
</clipPath>
</defs>
</svg>
