<svg width="200" height="200" viewBox="0 0 200 200" fill="none" xmlns="http://www.w3.org/2000/svg">
<path d="M93.9 12.02H97.4L102.54 20.34V12.02H106.08V26H102.6L97.44 17.66V26H93.9V12.02Z" fill="#FB0200"/>
<path d="M170.9 93.02H180.82V96H174.44V98.62H179.1V101.4H174.44V104.02H180.82V107H170.9V93.02Z" fill="white"/>
<path d="M100.26 188.3C99.38 188.3 98.5067 188.213 97.64 188.04C96.7733 187.88 96.06 187.653 95.5 187.36V184.18C96.22 184.553 96.9667 184.833 97.74 185.02C98.5267 185.207 99.2733 185.3 99.98 185.3C100.633 185.3 101.127 185.2 101.46 185C101.793 184.8 101.96 184.513 101.96 184.14C101.96 183.86 101.867 183.62 101.68 183.42C101.507 183.207 101.247 183.013 100.9 182.84C100.553 182.667 100.013 182.427 99.28 182.12C97.9867 181.573 97.0467 180.967 96.46 180.3C95.8733 179.633 95.58 178.813 95.58 177.84C95.58 177.04 95.8 176.327 96.24 175.7C96.6933 175.073 97.32 174.587 98.12 174.24C98.92 173.893 99.84 173.72 100.88 173.72C101.733 173.72 102.493 173.787 103.16 173.92C103.827 174.053 104.467 174.267 105.08 174.56V177.66C103.907 177.047 102.727 176.74 101.54 176.74C100.9 176.74 100.387 176.847 100 177.06C99.6267 177.26 99.44 177.553 99.44 177.94C99.44 178.327 99.6333 178.64 100.02 178.88C100.407 179.12 101.12 179.447 102.16 179.86C103.107 180.247 103.84 180.627 104.36 181C104.893 181.373 105.28 181.807 105.52 182.3C105.76 182.793 105.88 183.42 105.88 184.18C105.88 185.473 105.407 186.487 104.46 187.22C103.527 187.94 102.127 188.3 100.26 188.3Z" fill="white"/>
<path d="M10.5 93.02H14.14L16.48 101.3L18.74 93.02H21.26L23.38 101.32L25.7 93.02H29.34L25.48 107H22.22L19.92 98.88L17.64 107H14.36L10.5 93.02Z" fill="white"/>
<circle cx="100" cy="100" r="59.5" stroke="#F9F9FA"/>
</svg>
