<svg width="153" height="123" viewBox="0 0 153 123" fill="none" xmlns="http://www.w3.org/2000/svg">
<path d="M72.4618 1.44938C62.9588 2.60898 54.8637 6.72968 48.3628 13.708C46.0233 16.2135 44.2013 18.7812 42.6486 21.763C41.1993 24.5585 40.5989 26.1115 39.6465 29.3832L38.9633 31.7645L37.4519 32.2201C32.0897 33.8145 27.949 36.258 23.8496 40.2544C19.8124 44.1681 16.6241 49.3655 15.4647 53.8383C14.9471 55.7847 14.74 55.7019 20.7234 55.7019C23.9118 55.7019 26.0649 55.6191 26.3134 55.4948C26.5204 55.3706 27.038 54.6044 27.4521 53.7761C28.6943 51.312 29.8951 49.6554 31.862 47.7711C35.7335 44.0438 38.8598 42.6772 45.2572 41.8903C46.9342 41.7039 48.4042 41.414 48.5491 41.2898C48.694 41.1448 48.9632 39.8403 49.1495 38.3701C49.6257 34.7049 50.0398 32.6963 50.7644 30.6463C53.9735 21.5145 61.9651 14.6191 71.5923 12.6933C73.8283 12.2378 79.5011 12.1964 81.7785 12.6105C87.3477 13.6044 92.503 16.3171 96.6023 20.4171C100.143 23.9165 102.793 28.6585 103.911 33.4418C104.035 34.0009 104.366 36.0923 104.635 38.0802C104.946 40.4822 105.215 41.7246 105.401 41.8489C105.567 41.9524 108.528 42.0352 112.006 42.0352C120.411 42.0352 122.792 42.4494 126.623 44.4994C130.888 46.8186 134.635 50.8357 136.436 55.0393C138.382 59.6362 138.569 65.5378 136.871 70.1761C134.511 76.616 128.879 81.7721 122.171 83.615L120.184 84.1741L95.6499 84.2777C82.1511 84.3398 70.9919 84.464 70.8676 84.5468C70.6606 84.6711 70.5985 85.9756 70.5985 89.8686C70.5985 94.7554 70.6192 95.0453 70.9919 95.2524C71.261 95.3974 79.1698 95.4595 95.1737 95.4595C120.846 95.4595 121.302 95.4388 125.318 94.3413C130.805 92.8297 135.318 90.1792 139.562 85.9549C144.262 81.2544 147.078 76.0777 148.465 69.5756C148.858 67.712 148.941 66.7802 148.941 63.1564C148.941 59.5327 148.858 58.5802 148.465 56.7373C147.181 50.6701 144.366 45.2862 140.204 40.9792C133.931 34.415 125.608 30.8534 116.602 30.8534C115.256 30.8534 114.656 30.7706 114.614 30.5842C112.358 22.9019 109.791 18.16 105.401 13.6044C99.2316 7.18523 92.1303 3.31302 83.8488 1.84281C81.1367 1.34584 75.0084 1.13877 72.4618 1.44938Z" fill="#2297F2"/>
<path d="M71.5716 41.3104C68.3004 41.9316 65.2777 43.4846 63.0417 45.6589C62.1722 46.5079 61.8616 46.9841 61.5925 47.9366C60.9714 50.0695 61.4889 52.368 62.8761 53.6518C64.0148 54.7286 64.7601 54.977 66.7684 54.977C68.818 54.977 69.5013 54.7286 71.3439 53.3205C74.0354 51.2705 77.6585 51.6639 79.9773 54.2523C81.4887 55.9503 81.9235 57.9589 81.2402 60.2574C80.9918 61.127 80.6398 61.6447 79.6253 62.6594C77.4929 64.7922 81.2195 64.6058 41.0958 64.6058C1.48974 64.6058 4.67811 64.4609 2.87689 66.2624C0.247524 68.8922 0.910041 73.22 4.24333 75.0215L5.07148 75.4771H41.7169H78.3624L79.9773 75.0008C86.2505 73.1993 91.2815 67.7533 92.3374 61.624C92.503 60.7957 92.5444 59.0978 92.503 57.3998C92.4202 55.0599 92.296 54.273 91.8612 52.9063C90.0807 47.5018 85.236 42.9462 79.7082 41.5382C77.8241 41.0412 73.6006 40.9377 71.5716 41.3104Z" fill="#2297F2"/>
<path d="M5.19606 84.5055C1.22096 85.6651 -0.0833728 90.8419 2.87725 93.803C4.63706 95.5631 3.37414 95.4596 24.3469 95.4596C45.2162 95.4596 44.0982 95.3767 45.9823 97.0747C46.5413 97.5717 47.2659 98.4207 47.5764 98.9591C48.0733 99.808 48.1354 100.119 48.1354 101.879C48.1354 103.639 48.0733 103.949 47.5764 104.798C46.3756 106.828 44.5744 108.049 42.4833 108.236C40.7649 108.401 39.3364 107.905 37.5145 106.559C35.8168 105.295 34.5124 104.861 32.8147 105.047C30.7858 105.254 28.9225 106.703 28.4049 108.484C28.0943 109.52 28.0943 111.238 28.4049 112.274C29.0674 114.531 33.353 117.637 37.2453 118.693C39.6055 119.356 44.3881 119.335 46.6448 118.693C50.7234 117.533 54.243 114.903 56.5825 111.28C58.4666 108.381 59.2119 105.647 59.2119 101.734C59.2119 96.4949 57.5763 92.7469 53.7047 89.0404C51.8414 87.2596 50.1851 86.1828 48.1147 85.3959C45.2162 84.2985 45.0713 84.2985 24.7403 84.2985C13.2705 84.3192 5.63084 84.402 5.19606 84.5055Z" fill="#2297F2"/>
</svg>
